<svg width="24" height="24" viewBox="0 0 24 24" fill="none" xmlns="http://www.w3.org/2000/svg">
<path d="M3.03748 8.96352C3.41833 7.54223 4.16659 6.24624 5.20706 5.20579C6.24752 4.16535 7.54353 3.41711 8.96482 3.03628C10.3861 2.65546 11.8826 2.65547 13.3039 3.03631C14.7252 3.41714 16.0212 4.16539 17.0616 5.20585C18.1021 6.2463 18.8503 7.54231 19.2312 8.96359C19.612 10.3849 19.612 11.8814 19.2312 13.3027C18.8504 14.724 18.1021 16.02 17.0617 17.0604C16.0213 18.1009 14.7253 18.8492 13.304 19.23M8.26748 19.01C7.00125 18.5489 5.86479 17.7895 4.95439 16.7959C4.04398 15.8024 3.38645 14.6041 3.03748 13.3025" stroke="black" stroke-linecap="round" stroke-linejoin="round"/>
<path d="M11.1345 12.058C11.6133 12.058 12.0015 11.6698 12.0015 11.191C12.0015 10.7121 11.6133 10.324 11.1345 10.324C10.6556 10.324 10.2675 10.7121 10.2675 11.191C10.2675 11.6698 10.6556 12.058 11.1345 12.058Z" stroke="black" stroke-linecap="round" stroke-linejoin="round"/>
<path d="M14.8925 12.058C15.3713 12.058 15.7595 11.6698 15.7595 11.191C15.7595 10.7121 15.3713 10.324 14.8925 10.324C14.4137 10.324 14.0255 10.7121 14.0255 11.191C14.0255 11.6698 14.4137 12.058 14.8925 12.058Z" stroke="black" stroke-linecap="round" stroke-linejoin="round"/>
<path d="M7.37701 12.058C7.85584 12.058 8.24401 11.6698 8.24401 11.191C8.24401 10.7121 7.85584 10.324 7.37701 10.324C6.89818 10.324 6.51001 10.7121 6.51001 11.191C6.51001 11.6698 6.89818 12.058 7.37701 12.058Z" stroke="black" stroke-linecap="round" stroke-linejoin="round"/>
<path d="M16.986 17.1365L20.9625 21.25" stroke="black" stroke-linecap="round" stroke-linejoin="round"/>
</svg>
