<svg width="24" height="24" viewBox="0 0 24 24" fill="none" xmlns="http://www.w3.org/2000/svg">
<path d="M12.459 1.66053C12.3259 1.55677 12.162 1.50043 11.9932 1.50043C11.8245 1.50043 11.6606 1.55677 11.5275 1.66053L0.75 10.0643L1.68225 11.2433L3 10.2158V19.5C3.00079 19.8976 3.15908 20.2787 3.44022 20.5598C3.72135 20.841 4.10242 20.9992 4.5 21H19.5C19.8976 20.9992 20.2787 20.841 20.5598 20.5598C20.8409 20.2787 20.9992 19.8976 21 19.5V10.2225L22.3177 11.25L23.25 10.071L12.459 1.66053ZM13.5 19.5H10.5V13.5H13.5V19.5ZM15 19.5V13.5C15 13.1022 14.842 12.7207 14.5607 12.4394C14.2794 12.1581 13.8978 12 13.5 12H10.5C10.1022 12 9.72064 12.1581 9.43934 12.4394C9.15804 12.7207 9 13.1022 9 13.5V19.5H4.5V9.04653L12 3.20403L19.5 9.05403V19.5H15Z" fill="black"/>
</svg>
