<svg width="24" height="24" viewBox="0 0 24 24" fill="none" xmlns="http://www.w3.org/2000/svg">
<g clip-path="url(#clip0_61_543)">
<path d="M12 21.62C11.8527 21.6195 11.7097 21.5703 11.5933 21.48C7.88667 18.6 5.33334 16.12 3.54667 13.6733C1.26667 10.5467 0.74667 7.66001 2 5.09334C2.89334 3.26001 5.46 1.76001 8.46 2.63334C9.89036 3.0465 11.1383 3.93253 12 5.14667C12.8617 3.93253 14.1096 3.0465 15.54 2.63334C18.5333 1.77334 21.1067 3.26001 22 5.09334C23.2533 7.66001 22.7333 10.5467 20.4533 13.6733C18.6667 16.12 16.1133 18.6 12.4067 21.48C12.2903 21.5703 12.1473 21.6195 12 21.62ZM6.75334 3.72001C6.03951 3.69222 5.33158 3.85937 4.70557 4.20351C4.07955 4.54764 3.55907 5.05577 3.2 5.67334C2.16667 7.79334 2.63334 10.1533 4.62667 12.88C6.74424 15.6131 9.22491 18.0444 12 20.1067C14.7747 18.0465 17.2553 15.6174 19.3733 12.8867C21.3733 10.1533 21.8333 7.79334 20.8 5.68001C20.1333 4.34667 18.1333 3.28667 15.9067 3.91334C15.1927 4.12434 14.5308 4.48248 13.9636 4.96472C13.3964 5.44696 12.9364 6.04261 12.6133 6.71334C12.5631 6.83561 12.4777 6.9402 12.3679 7.0138C12.2581 7.0874 12.1289 7.1267 11.9967 7.1267C11.8645 7.1267 11.7353 7.0874 11.6255 7.0138C11.5157 6.9402 11.4302 6.83561 11.38 6.71334C11.0593 6.04093 10.6002 5.44389 10.0326 4.96135C9.46504 4.47881 8.80191 4.12167 8.08667 3.91334C7.65334 3.78739 7.20459 3.72232 6.75334 3.72001Z" fill="black"/>
</g>
<defs>
<clipPath id="clip0_61_543">
<rect width="24" height="24" rx="10" fill="white"/>
</clipPath>
</defs>
</svg>
