<svg width="225" height="51" viewBox="0 0 225 51" fill="none" xmlns="http://www.w3.org/2000/svg">
<g clip-path="url(#clip0_23_49)">
<path d="M224.212 16.5849C222.851 17.1842 221.412 17.5803 219.939 17.7611C221.493 16.8189 222.657 15.3366 223.216 13.5892C221.756 14.4715 220.157 15.0931 218.49 15.427C217.376 14.2004 215.892 13.3839 214.271 13.1056C212.65 12.8273 210.985 13.1028 209.535 13.8891C208.085 14.6754 206.933 15.9279 206.26 17.4502C205.587 18.9725 205.431 20.6784 205.816 22.3005C202.864 22.1489 199.976 21.3686 197.34 20.0103C194.704 18.652 192.38 16.746 190.517 14.4162C189.863 15.5744 189.52 16.8859 189.521 18.2205C189.519 19.4599 189.818 20.6807 190.393 21.7741C190.968 22.8675 191.8 23.7996 192.816 24.4875C191.636 24.4549 190.48 24.1334 189.448 23.5502V23.6421C189.457 25.3787 190.057 27.0588 191.146 28.3983C192.234 29.7379 193.745 30.6546 195.423 30.9934C194.777 31.1929 194.107 31.2981 193.432 31.3058C192.964 31.3003 192.498 31.2573 192.038 31.1772C192.515 32.671 193.44 33.9765 194.683 34.9119C195.926 35.8474 197.425 36.3664 198.972 36.3966C196.36 38.483 193.135 39.6217 189.811 39.6312C189.205 39.6332 188.601 39.5964 188 39.5209C191.394 41.7452 195.349 42.9259 199.389 42.9209C202.176 42.9503 204.942 42.4155 207.524 41.3479C210.106 40.2802 212.452 38.701 214.426 36.7026C216.4 34.7042 217.961 32.3265 219.02 29.7086C220.078 27.0906 220.612 24.2848 220.591 21.4551V20.481C222.011 19.4056 223.237 18.0871 224.212 16.5849Z" fill="black"/>
</g>
<g clip-path="url(#clip1_23_49)">
<path d="M114.443 40.2264C123.154 38.8959 129.833 31.267 129.833 22.054C129.833 11.9037 121.727 3.67578 111.727 3.67578C101.727 3.67578 93.6211 11.9037 93.6211 22.054C93.6211 31.267 100.3 38.8977 109.011 40.2264V27.5675H106.295C105.575 27.5675 104.884 27.2771 104.375 26.7601C103.865 26.2431 103.579 25.5419 103.579 24.8108C103.579 24.0796 103.865 23.3784 104.375 22.8615C104.884 22.3445 105.575 22.054 106.295 22.054H109.011V18.3784C109.011 16.6724 109.679 15.0363 110.867 13.83C112.056 12.6237 113.667 11.946 115.348 11.946H116.253C116.974 11.946 117.664 12.2364 118.174 12.7534C118.683 13.2704 118.969 13.9716 118.969 14.7027C118.969 15.4339 118.683 16.135 118.174 16.652C117.664 17.169 116.974 17.4595 116.253 17.4595H115.348C115.108 17.4595 114.878 17.5563 114.708 17.7286C114.538 17.9009 114.443 18.1347 114.443 18.3784V22.054H117.159C117.879 22.054 118.57 22.3445 119.079 22.8615C119.588 23.3784 119.875 24.0796 119.875 24.8108C119.875 25.5419 119.588 26.2431 119.079 26.7601C118.57 27.2771 117.879 27.5675 117.159 27.5675H114.443V40.2264Z" fill="black"/>
</g>
<g clip-path="url(#clip2_23_49)">
<path d="M36.7799 3.67578H18.674C13.6742 3.67578 9.62109 7.78989 9.62109 12.8649V31.2431C9.62109 36.3182 13.6742 40.4323 18.674 40.4323H36.7799C41.7797 40.4323 45.8328 36.3182 45.8328 31.2431V12.8649C45.8328 7.78989 41.7797 3.67578 36.7799 3.67578Z" stroke="black" stroke-width="2" stroke-linecap="round" stroke-linejoin="round"/>
<path d="M37.6852 11.9463H37.7033M34.9693 20.8965C35.1928 22.426 34.9354 23.9881 34.2338 25.3606C33.5322 26.7331 32.4221 27.8461 31.0614 28.5412C29.7007 29.2364 28.1587 29.4784 26.6547 29.2327C25.1508 28.9871 23.7614 28.2663 22.6842 27.173C21.6071 26.0796 20.897 24.6693 20.655 23.1427C20.413 21.6161 20.6514 20.0509 21.3362 18.6697C22.0211 17.2886 23.1176 16.1618 24.4697 15.4496C25.8219 14.7375 27.3608 14.4762 28.8677 14.703C30.4047 14.9344 31.8277 15.6614 32.9264 16.7767C34.0252 17.8919 34.7414 19.3363 34.9693 20.8965Z" stroke="black" stroke-width="2" stroke-linecap="round" stroke-linejoin="round"/>
</g>
<defs>
<clipPath id="clip0_23_49">
<rect width="43.454" height="44.1078" fill="white" transform="translate(181 6)"/>
</clipPath>
<clipPath id="clip1_23_49">
<rect width="43.454" height="44.1078" fill="white" transform="translate(90)"/>
</clipPath>
<clipPath id="clip2_23_49">
<rect width="43.454" height="44.1078" fill="white"/>
</clipPath>
</defs>
</svg>
