<svg width="110" height="28" viewBox="0 0 110 28" fill="none" xmlns="http://www.w3.org/2000/svg">
<path d="M0 1.5H24V4.5H0V1.5ZM0 7.5H24V10.5H0V7.5ZM0 13.5H24V16.5H0V13.5ZM0 19.5H24V22.5H0V19.5Z" fill="black"/>
<g clip-path="url(#clip0_61_555)">
<path fill-rule="evenodd" clip-rule="evenodd" d="M49.25 9C49.0511 9 48.8603 9.07902 48.7197 9.21967C48.579 9.36032 48.5 9.55109 48.5 9.75V21.75C48.5 21.9489 48.579 22.1397 48.7197 22.2803C48.8603 22.421 49.0511 22.5 49.25 22.5H62.75C62.9489 22.5 63.1397 22.421 63.2803 22.2803C63.421 22.1397 63.5 21.9489 63.5 21.75V9.75C63.5 9.55109 63.421 9.36032 63.2803 9.21967C63.1397 9.07902 62.9489 9 62.75 9H59.75C59.5511 9 59.3603 8.92098 59.2197 8.78033C59.079 8.63968 59 8.44891 59 8.25C59 8.05109 59.079 7.86032 59.2197 7.71967C59.3603 7.57902 59.5511 7.5 59.75 7.5H62.75C63.3467 7.5 63.919 7.73705 64.341 8.15901C64.7629 8.58097 65 9.15326 65 9.75V21.75C65 22.3467 64.7629 22.919 64.341 23.341C63.919 23.7629 63.3467 24 62.75 24H49.25C48.6533 24 48.081 23.7629 47.659 23.341C47.2371 22.919 47 22.3467 47 21.75V9.75C47 9.15326 47.2371 8.58097 47.659 8.15901C48.081 7.73705 48.6533 7.5 49.25 7.5H52.25C52.4489 7.5 52.6397 7.57902 52.7803 7.71967C52.921 7.86032 53 8.05109 53 8.25C53 8.44891 52.921 8.63968 52.7803 8.78033C52.6397 8.92098 52.4489 9 52.25 9H49.25Z" fill="black"/>
<path fill-rule="evenodd" clip-rule="evenodd" d="M55.469 0.218998C55.5387 0.149153 55.6214 0.0937388 55.7126 0.0559291C55.8037 0.0181194 55.9014 -0.00134277 56 -0.00134277C56.0987 -0.00134277 56.1963 0.0181194 56.2875 0.0559291C56.3786 0.0937388 56.4613 0.149153 56.531 0.218998L61.031 4.719C61.1718 4.85983 61.2509 5.05083 61.2509 5.25C61.2509 5.44916 61.1718 5.64017 61.031 5.781C60.8902 5.92183 60.6992 6.00095 60.5 6.00095C60.3008 6.00095 60.1098 5.92183 59.969 5.781L56.75 2.5605V15.75C56.75 15.9489 56.671 16.1397 56.5303 16.2803C56.3897 16.421 56.1989 16.5 56 16.5C55.8011 16.5 55.6103 16.421 55.4697 16.2803C55.329 16.1397 55.25 15.9489 55.25 15.75V2.5605L52.031 5.781C51.9613 5.85073 51.8785 5.90604 51.7874 5.94378C51.6963 5.98152 51.5986 6.00095 51.5 6.00095C51.3008 6.00095 51.1098 5.92183 50.969 5.781C50.8993 5.71127 50.844 5.62848 50.8062 5.53737C50.7685 5.44626 50.7491 5.34861 50.7491 5.25C50.7491 5.05083 50.8282 4.85983 50.969 4.719L55.469 0.218998Z" fill="black"/>
</g>
<path d="M105.071 17.142L99.414 22.8C99.0389 23.175 98.5303 23.3856 98 23.3856C97.4697 23.3856 96.961 23.175 96.586 22.8L90.929 17.143C90.4614 16.6795 90.0899 16.1281 89.8359 15.5206C89.5819 14.9131 89.4505 14.2614 89.449 13.603C89.4476 12.9445 89.5762 12.2923 89.8275 11.6837C90.0788 11.0751 90.4479 10.5221 90.9135 10.0565C91.3791 9.59091 91.932 9.22186 92.5406 8.97055C93.1493 8.71924 93.8015 8.59061 94.46 8.59205C95.1184 8.59349 95.7701 8.72498 96.3776 8.97895C96.9851 9.23293 97.5364 9.60439 98 10.072C98.9416 9.1539 100.207 8.64369 101.522 8.65193C102.837 8.66017 104.096 9.18619 105.026 10.116C105.956 11.0459 106.482 12.3047 106.491 13.6198C106.499 14.9349 105.989 16.2003 105.071 17.142Z" stroke="black" stroke-linecap="round" stroke-linejoin="round"/>
<defs>
<clipPath id="clip0_61_555">
<rect width="24" height="24" fill="white" transform="translate(44)"/>
</clipPath>
</defs>
</svg>
