<svg width="254" height="27" viewBox="0 0 254 27" fill="none" xmlns="http://www.w3.org/2000/svg">
<path d="M21.0002 24.0002L16.6572 19.6572M16.6572 19.6572C17.4001 18.9143 17.9894 18.0324 18.3914 17.0618C18.7935 16.0911 19.0004 15.0508 19.0004 14.0002C19.0004 12.9496 18.7935 11.9093 18.3914 10.9387C17.9894 9.96803 17.4001 9.08609 16.6572 8.34321C15.9143 7.60032 15.0324 7.01103 14.0618 6.60898C13.0911 6.20693 12.0508 6 11.0002 6C9.9496 6 8.90929 6.20693 7.93866 6.60898C6.96803 7.01103 6.08609 7.60032 5.34321 8.34321C3.84288 9.84354 3 11.8784 3 14.0002C3 16.122 3.84288 18.1569 5.34321 19.6572C6.84354 21.1575 8.87842 22.0004 11.0002 22.0004C13.122 22.0004 15.1569 21.1575 16.6572 19.6572Z" stroke="black" stroke-linecap="round" stroke-linejoin="round"/>
<path d="M125 19C125.53 19 126.039 19.2107 126.414 19.5858C126.789 19.9609 127 20.4696 127 21C127 21.5304 126.789 22.0391 126.414 22.4142C126.039 22.7893 125.53 23 125 23C124.47 23 123.961 22.7893 123.586 22.4142C123.211 22.0391 123 21.5304 123 21C123 19.89 123.89 19 125 19ZM109 3H112.27L113.21 5H128C128.265 5 128.52 5.10536 128.707 5.29289C128.895 5.48043 129 5.73478 129 6C129 6.17 128.95 6.34 128.88 6.5L125.3 12.97C124.96 13.58 124.3 14 123.55 14H116.1L115.2 15.63L115.17 15.75C115.17 15.8163 115.196 15.8799 115.243 15.9268C115.29 15.9737 115.354 16 115.42 16H127V18H115C114.47 18 113.961 17.7893 113.586 17.4142C113.211 17.0391 113 16.5304 113 16C113 15.65 113.09 15.32 113.24 15.04L114.6 12.59L111 5H109V3ZM115 19C115.53 19 116.039 19.2107 116.414 19.5858C116.789 19.9609 117 20.4696 117 21C117 21.5304 116.789 22.0391 116.414 22.4142C116.039 22.7893 115.53 23 115 23C114.47 23 113.961 22.7893 113.586 22.4142C113.211 22.0391 113 21.5304 113 21C113 19.89 113.89 19 115 19ZM124 12L126.78 7H114.14L116.5 12H124Z" fill="black"/>
<path opacity="0.25" d="M245.436 14.778C244.841 14.528 244.1 14.215 244.1 13.975V12.405C244.533 12.0759 244.884 11.6518 245.127 11.1655C245.369 10.6791 245.497 10.1435 245.5 9.6V7.5C245.5 5.57 243.93 4 242 4C240.07 4 238.5 5.57 238.5 7.5V9.6C238.503 10.1437 238.631 10.6795 238.873 11.166C239.116 11.6525 239.467 12.0767 239.9 12.406V13.975C239.9 14.201 239.166 14.515 238.577 14.767C237.152 15.376 235 16.296 235 18.7V19.05H249V18.7C249 16.28 246.856 15.376 245.436 14.778Z" fill="black"/>
<path d="M238.5 9.5V7.5C238.5 7.04037 238.591 6.58525 238.766 6.16061C238.942 5.73597 239.2 5.35013 239.525 5.02513C239.85 4.70012 240.236 4.44231 240.661 4.26642C241.085 4.09053 241.54 4 242 4C242.46 4 242.915 4.09053 243.339 4.26642C243.764 4.44231 244.15 4.70012 244.475 5.02513C244.8 5.35013 245.058 5.73597 245.234 6.16061C245.409 6.58525 245.5 7.04037 245.5 7.5V9.5C245.5 10.69 244.907 11.74 244 12.373V13.323C244 13.5228 244.06 13.718 244.172 13.8834C244.284 14.0488 244.443 14.1769 244.629 14.251L246.215 14.886C247.037 15.2149 247.742 15.7827 248.238 16.516C248.735 17.2493 249 18.1145 249 19H235C235 18.1145 235.265 17.2493 235.762 16.516C236.258 15.7827 236.963 15.2149 237.785 14.886L239.371 14.251C239.557 14.1769 239.716 14.0488 239.828 13.8834C239.94 13.718 240 13.5228 240 13.323V12.373C239.537 12.0508 239.158 11.6211 238.897 11.1208C238.636 10.6205 238.5 10.0644 238.5 9.5Z" fill="black"/>
</svg>
