<svg width="24" height="24" viewBox="0 0 24 24" fill="none" xmlns="http://www.w3.org/2000/svg">
<path fill-rule="evenodd" clip-rule="evenodd" d="M6 3C5.20435 3 4.44129 3.31607 3.87868 3.87868C3.31607 4.44129 3 5.20435 3 6V18C3 18.7956 3.31607 19.5587 3.87868 20.1213C4.44129 20.6839 5.20435 21 6 21H18C18.7956 21 19.5587 20.6839 20.1213 20.1213C20.6839 19.5587 21 18.7956 21 18V6C21 5.20435 20.6839 4.44129 20.1213 3.87868C19.5587 3.31607 18.7956 3 18 3H6ZM12 16.5C11.7016 16.5 11.4155 16.3815 11.2045 16.1705C10.9935 15.9595 10.875 15.6734 10.875 15.375V13.125H8.625C8.32663 13.125 8.04048 13.0065 7.8295 12.7955C7.61853 12.5845 7.5 12.2984 7.5 12C7.5 11.7016 7.61853 11.4155 7.8295 11.2045C8.04048 10.9935 8.32663 10.875 8.625 10.875H10.875V8.625C10.875 8.32663 10.9935 8.04048 11.2045 7.8295C11.4155 7.61853 11.7016 7.5 12 7.5C12.2984 7.5 12.5845 7.61853 12.7955 7.8295C13.0065 8.04048 13.125 8.32663 13.125 8.625V10.875H15.375C15.6734 10.875 15.9595 10.9935 16.1705 11.2045C16.3815 11.4155 16.5 11.7016 16.5 12C16.5 12.2984 16.3815 12.5845 16.1705 12.7955C15.9595 13.0065 15.6734 13.125 15.375 13.125H13.125V15.375C13.125 15.6734 13.0065 15.9595 12.7955 16.1705C12.5845 16.3815 12.2984 16.5 12 16.5Z" fill="black"/>
</svg>
