<svg width="24" height="24" viewBox="0 0 24 24" fill="none" xmlns="http://www.w3.org/2000/svg">
<path d="M19.7813 19.8066L19.7757 19.7953L15.4247 10.5272L17.4572 7.33969V7.33031C17.5626 7.15576 17.6183 6.95575 17.6183 6.75187C17.6183 6.54799 17.5626 6.34799 17.4572 6.17344L17.4432 6.15094L15.375 3.1875V0.75C15.375 0.650544 15.3355 0.555161 15.2652 0.484835C15.1949 0.414509 15.0995 0.375 15 0.375C14.9006 0.375 14.8052 0.414509 14.7349 0.484835C14.6645 0.555161 14.625 0.650544 14.625 0.75V3.17062L14.0503 3.88969C13.8044 4.19729 13.4925 4.44561 13.1375 4.61626C12.7826 4.78692 12.3938 4.87553 12 4.87553C11.6062 4.87553 11.2174 4.78692 10.8625 4.61626C10.5076 4.44561 10.1956 4.19729 9.94972 3.88969L9.37503 3.17062V0.75C9.37503 0.650544 9.33552 0.555161 9.26519 0.484835C9.19487 0.414509 9.09948 0.375 9.00003 0.375C8.90057 0.375 8.80519 0.414509 8.73486 0.484835C8.66454 0.555161 8.62503 0.650544 8.62503 0.75V3.1875L6.5494 6.14906L6.53534 6.17156C6.42999 6.34611 6.3743 6.54612 6.3743 6.75C6.3743 6.95388 6.42999 7.15389 6.53534 7.32844C6.53708 7.33147 6.53864 7.3346 6.54003 7.33781L8.57253 10.5253L4.21878 19.7953L4.21315 19.8066C4.13966 19.9779 4.10991 20.1648 4.12657 20.3505C4.14323 20.5362 4.20579 20.7149 4.3086 20.8704C4.41142 21.0259 4.55129 21.1535 4.71561 21.2416C4.87994 21.3296 5.06358 21.3755 5.25003 21.375H18.75C18.936 21.3746 19.119 21.328 19.2825 21.2396C19.4461 21.1511 19.5852 21.0235 19.6874 20.8681C19.7895 20.7127 19.8516 20.5344 19.868 20.3491C19.8844 20.1639 19.8546 19.9775 19.7813 19.8066ZM7.17565 6.9375C7.14274 6.88049 7.12541 6.81583 7.12541 6.75C7.12541 6.68417 7.14274 6.61951 7.17565 6.5625L9.01972 3.92813L9.36472 4.35844C9.68091 4.75363 10.0819 5.07265 10.5381 5.29188C10.9943 5.51111 11.4939 5.62494 12 5.62494C12.5061 5.62494 13.0058 5.51111 13.462 5.29188C13.9181 5.07265 14.3191 4.75363 14.6353 4.35844L14.9803 3.92813L16.8272 6.5625C16.8601 6.61951 16.8775 6.68417 16.8775 6.75C16.8775 6.81583 16.8601 6.88049 16.8272 6.9375L14.7975 10.125H9.20534L7.17565 6.9375ZM19.0622 20.4562C19.0285 20.5083 18.9823 20.5511 18.9277 20.5806C18.8732 20.6101 18.812 20.6253 18.75 20.625H5.25003C5.18801 20.6253 5.1269 20.6101 5.07234 20.5806C5.01778 20.5511 4.97153 20.5083 4.93784 20.4562C4.90339 20.4056 4.88224 20.3471 4.87634 20.2862C4.87044 20.2252 4.87999 20.1638 4.90409 20.1075L9.23815 10.875H14.7619L19.096 20.1075C19.1201 20.1638 19.1296 20.2252 19.1237 20.2862C19.1178 20.3471 19.0967 20.4056 19.0622 20.4562Z" fill="black"/>
</svg>
