<svg width="24" height="24" viewBox="0 0 24 24" fill="none" xmlns="http://www.w3.org/2000/svg">
<g clip-path="url(#clip0_69_65)">
<path d="M10.9548 0L13.3236 0.006C14.2572 0.1188 15.0756 0.558 15.75 1.2996C16.3008 1.9044 16.59 2.6076 16.6068 3.3732H23.1768C23.3962 3.37447 23.6061 3.46276 23.7605 3.61868C23.9148 3.7746 24.001 3.98541 24 4.2048C24.0006 4.42399 23.9143 4.63448 23.76 4.79014C23.6057 4.94581 23.396 5.03393 23.1768 5.0352L20.9736 5.034V18.9864C20.9736 22.038 19.8348 24 17.3244 24H6.5028C3.9924 24 2.8716 22.0488 2.8716 18.9864V5.034H0.8232C0.604434 5.03273 0.39506 4.94494 0.240816 4.78979C0.0865726 4.63465 -3.67595e-06 4.42477 1.17061e-10 4.206C1.17061e-10 3.7464 0.3684 3.3756 0.8232 3.3756H7.3872C7.404 2.7588 7.6332 2.1336 8.052 1.5156C8.676 0.594 9.6504 0.0888 10.9548 0ZM19.3272 5.034H4.5168V18.9864C4.5168 21.252 5.1408 22.3392 6.5028 22.3392H17.3244C18.6912 22.3392 19.3284 21.2424 19.3284 18.9864L19.3272 5.034ZM8.0592 7.608C8.5128 7.608 8.8812 7.98 8.8812 8.4384V18.0984C8.88184 18.3176 8.79554 18.5281 8.64123 18.6837C8.48692 18.8394 8.27718 18.9275 8.058 18.9288C7.83903 18.9272 7.6296 18.839 7.47554 18.6833C7.32149 18.5277 7.23536 18.3174 7.236 18.0984V8.4384C7.236 7.98 7.6056 7.608 8.0592 7.608ZM11.3292 7.608C11.7852 7.608 12.1524 7.98 12.1524 8.4384V18.0984C12.153 18.3176 12.0667 18.5281 11.9124 18.6837C11.7581 18.8394 11.5484 18.9275 11.3292 18.9288C11.1102 18.9272 10.9008 18.839 10.7467 18.6833C10.5927 18.5277 10.5066 18.3174 10.5072 18.0984V8.4384C10.5072 7.98 10.8756 7.608 11.3292 7.608ZM14.6028 7.608C15.0564 7.608 15.4248 7.98 15.4248 8.4384V18.0984C15.4254 18.3174 15.3393 18.5277 15.1853 18.6833C15.0312 18.839 14.8218 18.9272 14.6028 18.9288C14.3836 18.9275 14.1739 18.8394 14.0196 18.6837C13.8653 18.5281 13.779 18.3176 13.7796 18.0984V8.4384C13.779 8.21921 13.8653 8.00872 14.0196 7.85306C14.1739 7.6974 14.3836 7.60927 14.6028 7.608ZM11.0112 1.6584C10.2408 1.7124 9.7332 1.9752 9.4104 2.4528C9.1728 2.802 9.054 3.1044 9.0348 3.3744L14.9604 3.3732C14.9436 3.024 14.8056 2.7168 14.538 2.4228C14.1228 1.9668 13.662 1.7196 13.2264 1.6608L11.0112 1.6584Z" fill="black"/>
</g>
<defs>
<clipPath id="clip0_69_65">
<rect width="24" height="24" fill="white"/>
</clipPath>
</defs>
</svg>
