<svg width="21" height="17" viewBox="0 0 21 17" fill="none" xmlns="http://www.w3.org/2000/svg">
<path d="M14.8125 0.602142C12.8025 0.602142 11.07 1.47528 10.125 2.92165C9.18 1.47528 7.4475 0.602142 5.4375 0.602142C3.99592 0.60373 2.61388 1.12784 1.59452 2.0595C0.575172 2.99117 0.0017367 4.25433 0 5.5719C0 8.02165 1.6875 10.5819 5.00625 13.1799C6.53867 14.3716 8.19319 15.4256 9.94687 16.3271C10.0016 16.3541 10.0628 16.3683 10.125 16.3683C10.1872 16.3683 10.2484 16.3541 10.3031 16.3271C12.0568 15.4256 13.7113 14.3716 15.2438 13.1799C18.5625 10.5819 20.25 8.02165 20.25 5.5719C20.2483 4.25433 19.6748 2.99117 18.6555 2.0595C17.6361 1.12784 16.2541 0.60373 14.8125 0.602142ZM10.125 15.6331C8.8125 14.9476 0.75 10.5477 0.75 5.5719C0.751489 4.43606 1.24583 3.34713 2.12458 2.54396C3.00334 1.7408 4.19475 1.28899 5.4375 1.28763C7.41656 1.28763 9.07969 2.25673 9.77813 3.81621C9.80638 3.87907 9.85444 3.93283 9.9162 3.97067C9.97797 4.00851 10.0506 4.02872 10.125 4.02872C10.1994 4.02872 10.272 4.00851 10.3338 3.97067C10.3956 3.93283 10.4436 3.87907 10.4719 3.81621C11.1703 2.25673 12.8334 1.28763 14.8125 1.28763C16.0552 1.28899 17.2467 1.7408 18.1254 2.54396C19.0042 3.34713 19.4985 4.43606 19.5 5.5719C19.5 10.5417 11.4375 14.951 10.125 15.6331Z" fill="black"/>
</svg>
