<svg width="18" height="18" viewBox="0 0 18 18" fill="none" xmlns="http://www.w3.org/2000/svg">
<path d="M9 0C7.21997 0 5.47991 0.527841 3.99987 1.51677C2.51983 2.50571 1.36628 3.91131 0.685088 5.55585C0.00389942 7.20038 -0.17433 9.00998 0.172937 10.7558C0.520203 12.5016 1.37737 14.1053 2.63604 15.364C3.89471 16.6226 5.49836 17.4798 7.24419 17.8271C8.99002 18.1743 10.7996 17.9961 12.4442 17.3149C14.0887 16.6337 15.4943 15.4802 16.4832 14.0001C17.4722 12.5201 18 10.78 18 9C17.9974 6.61385 17.0483 4.32619 15.3611 2.63893C13.6738 0.951673 11.3861 0.00262044 9 0ZM9 17.28C7.36237 17.28 5.76152 16.7944 4.39988 15.8846C3.03824 14.9747 1.97697 13.6816 1.35028 12.1686C0.723588 10.6556 0.559616 8.99081 0.879102 7.38465C1.19859 5.77849 1.98718 4.30313 3.14516 3.14515C4.30314 1.98718 5.77849 1.19858 7.38465 0.879098C8.99082 0.559612 10.6556 0.723584 12.1686 1.35028C13.6816 1.97697 14.9748 3.03824 15.8846 4.39988C16.7944 5.76152 17.28 7.36237 17.28 9C17.2776 11.1953 16.4045 13.2999 14.8522 14.8522C13.2999 16.4045 11.1953 17.2776 9 17.28Z" fill="black"/>
</svg>
