<svg width="24" height="24" viewBox="0 0 24 24" fill="none" xmlns="http://www.w3.org/2000/svg">
<path fill-rule="evenodd" clip-rule="evenodd" d="M2.5 20V19.315C2.5 18.63 2.998 17.832 3.614 17.531L9.274 14.769C10.095 14.369 10.286 13.481 9.694 12.779L9.332 12.35C8.596 11.478 8 9.85 8 8.71V7C8 5.93913 8.42143 4.92172 9.17157 4.17157C9.92172 3.42143 10.9391 3 12 3C13.0609 3 14.0783 3.42143 14.8284 4.17157C15.5786 4.92172 16 5.93913 16 7V8.71C16 9.85 15.4 11.483 14.668 12.352L14.307 12.78C13.717 13.479 13.901 14.368 14.726 14.77L20.386 17.532C21.001 17.832 21.5 18.625 21.5 19.315V20C21.5 20.2652 21.3946 20.5196 21.2071 20.7071C21.0196 20.8946 20.7652 21 20.5 21H3.5C3.23478 21 2.98043 20.8946 2.79289 20.7071C2.60536 20.5196 2.5 20.2652 2.5 20Z" fill="black"/>
</svg>
